HIERARCHY
ROOT joint_0
{
	OFFSET 0.000000 0.000000 0.000000
	CHANNELS 6 Xposition Yposition Zposition Zrotation Yrotation Xrotation 
	JOINT joint_1
	{
		OFFSET 7.566162 2.250183 114.799927
		CHANNELS 3 Zrotation Yrotation Xrotation
		JOINT joint_2
		{
			OFFSET -5.201660 -0.414001 104.936035
			CHANNELS 3 Zrotation Yrotation Xrotation
			JOINT joint_3
			{
				OFFSET -6.923584 -0.419739 104.718018
				CHANNELS 3 Zrotation Yrotation Xrotation
				JOINT joint_4
				{
					OFFSET 3.108887 2.881104 149.449951
					CHANNELS 3 Zrotation Yrotation Xrotation
					JOINT joint_5
					{
						OFFSET 19.988770 5.920349 90.786987
						CHANNELS 3 Zrotation Yrotation Xrotation
						End Site
						{
							OFFSET 0.000000 0.000000 0.000000
						}
					}
				}
				JOINT joint_6
				{
					OFFSET 9.283936 -30.015930 84.410034
					CHANNELS 3 Zrotation Yrotation Xrotation
					JOINT joint_7
					{
						OFFSET 47.243164 -155.716736 -23.241089
						CHANNELS 3 Zrotation Yrotation Xrotation
						JOINT joint_8
						{
							OFFSET 31.323730 -15.356873 -268.798950
							CHANNELS 3 Zrotation Yrotation Xrotation
							JOINT joint_9
							{
								OFFSET 28.122314 -2.114624 -262.450012
								CHANNELS 3 Zrotation Yrotation Xrotation
								End Site
								{
									OFFSET 0.000000 0.000000 0.000000
								}
							}
						}
					}
				}
				JOINT joint_10
				{
					OFFSET -5.580566 33.311218 83.498047
					CHANNELS 3 Zrotation Yrotation Xrotation
					JOINT joint_11
					{
						OFFSET -22.773438 160.515381 -27.138062
						CHANNELS 3 Zrotation Yrotation Xrotation
						JOINT joint_12
						{
							OFFSET 27.004395 30.848877 -267.937988
							CHANNELS 3 Zrotation Yrotation Xrotation
							JOINT joint_13
							{
								OFFSET 32.625000 14.824585 -261.518005
								CHANNELS 3 Zrotation Yrotation Xrotation
								End Site
								{
									OFFSET 0.000000 0.000000 0.000000
								}
							}
						}
					}
				}
			}
		}
	}
	JOINT joint_14
	{
		OFFSET 20.623535 -83.447632 -106.174011
		CHANNELS 3 Zrotation Yrotation Xrotation
		JOINT joint_15
		{
			OFFSET 0.661865 -23.563843 -459.915039
			CHANNELS 3 Zrotation Yrotation Xrotation
			JOINT joint_16
			{
				OFFSET -23.461670 -28.727966 -444.760971
				CHANNELS 3 Zrotation Yrotation Xrotation
				JOINT joint_17
				{
					OFFSET 178.992920 54.047363 -80.113001
					CHANNELS 3 Zrotation Yrotation Xrotation
					End Site
					{
						OFFSET 0.000000 0.000000 0.000000
					}
				}
			}
		}
	}
	JOINT joint_18
	{
		OFFSET -19.571533 84.686279 -105.380005
		CHANNELS 3 Zrotation Yrotation Xrotation
		JOINT joint_19
		{
			OFFSET -22.949951 3.639404 -459.933044
			CHANNELS 3 Zrotation Yrotation Xrotation
			JOINT joint_20
			{
				OFFSET -33.690674 4.092651 -445.010971
				CHANNELS 3 Zrotation Yrotation Xrotation
				JOINT joint_21
				{
					OFFSET 187.419678 18.953857 -76.759001
					CHANNELS 3 Zrotation Yrotation Xrotation
					End Site
					{
						OFFSET 0.000000 0.000000 0.000000
					}
				}
			}
		}
	}
}
MOTION
Frames: 13
Frame Time: 0.016667
-2971.317627 809.162476 1099.432007 -2.271960 1.940861 0.953235 -1.963702 8.446584 4.996486 -1.230745 -1.243618 -0.965476 -0.936027 1.433575 0.913217 -0.137947 -1.878046 1.192585 0.000000 0.000000 0.000000 -1.481469 7.417380 -7.359593 -2.658480 6.316031 -8.388740 4.212990 -53.151791 42.977061 0.000000 0.000000 0.000000 0.926129 11.694187 -1.152098 7.134440 12.318409 4.935215 -2.357760 -62.979990 -30.857765 0.000000 0.000000 0.000000 -3.261876 -14.301094 -4.937791 -6.454519 17.818364 -6.242539 -7.111547 -4.135279 -1.686616 0.000000 0.000000 0.000000 -2.359757 -2.085578 5.414554 -1.504339 36.321089 -9.435801 -5.660225 7.808833 -2.800335 0.000000 0.000000 0.000000 
-2965.731445 804.527527 1096.900024 -2.929490 1.360558 0.857516 -1.734603 8.855026 5.515042 -0.828035 -1.280446 -1.058601 -0.493505 1.509787 0.946757 -0.117249 -1.880446 1.112577 0.000000 0.000000 0.000000 -1.194180 7.387272 -7.190770 -3.025079 6.211520 -8.578718 4.029313 -53.602538 43.738632 0.000000 0.000000 0.000000 0.815752 11.715387 -1.414704 7.242264 12.462433 5.636369 -2.321887 -63.253965 -31.194845 0.000000 0.000000 0.000000 -3.047297 -13.038942 -5.618128 -6.142480 17.321990 -4.492717 -6.566698 -4.720125 -1.293014 0.000000 0.000000 0.000000 -2.189385 -1.946654 6.049145 -1.284352 38.042284 -10.018511 -5.942311 7.785210 -2.895839 0.000000 0.000000 0.000000 
-2960.783447 799.555542 1095.088013 -3.974135 0.751864 0.675720 -1.381215 9.411820 6.076646 -0.288902 -1.333071 -1.162442 0.087853 1.623792 0.953259 -0.094085 -1.985954 1.052857 0.000000 0.000000 0.000000 -0.755006 7.264977 -6.823618 -3.447533 5.975782 -8.818037 3.824291 -53.849092 44.462753 0.000000 0.000000 0.000000 0.769974 11.580365 -1.715402 7.350224 12.488279 6.409703 -2.308947 -63.310626 -31.456988 0.000000 0.000000 0.000000 -2.764278 -12.074651 -6.022823 -5.828433 17.426341 -2.801910 -6.110541 -5.440720 -0.889050 0.000000 0.000000 0.000000 -1.894600 -1.794995 6.793436 -0.933224 39.832938 -10.638312 -6.209168 7.710391 -2.984038 0.000000 0.000000 0.000000 
-2956.416992 794.867432 1094.302002 -5.036401 0.330358 0.546736 -1.077051 9.783728 6.449355 0.195946 -1.362144 -1.238978 0.610010 1.698892 0.952529 -0.100317 -2.037748 1.097778 0.000000 0.000000 0.000000 -0.375146 6.910450 -6.365163 -3.720118 5.540195 -8.918140 3.760299 -53.399545 45.043285 0.000000 0.000000 0.000000 0.872963 11.474221 -1.827237 7.315595 12.432264 6.705285 -2.362092 -63.240203 -31.343433 0.000000 0.000000 0.000000 -2.433101 -11.447876 -6.107780 -5.512316 17.587393 -1.794366 -5.756438 -5.859542 -0.613542 0.000000 0.000000 0.000000 -1.562069 -1.943592 7.489219 -0.584590 41.692136 -11.171928 -6.529437 7.667487 -3.096746 0.000000 0.000000 0.000000 
-2952.848389 790.588989 1094.951050 -6.133134 0.245375 0.498187 -0.836456 9.805023 6.510224 0.585347 -1.352199 -1.278851 1.025570 1.706232 0.943237 -0.163739 -1.962626 1.341055 0.000000 0.000000 0.000000 -0.115619 6.197824 -5.759483 -3.744843 4.779495 -8.819147 3.924226 -51.860491 45.449269 0.000000 0.000000 0.000000 1.226794 11.477401 -1.591170 7.034738 12.274242 6.162476 -2.522826 -63.063685 -30.643847 0.000000 0.000000 0.000000 -1.992388 -11.377890 -5.657209 -5.196524 17.762289 -1.984271 -5.546634 -5.829325 -0.527643 0.000000 0.000000 0.000000 -1.198976 -2.591919 8.149572 -0.280631 43.613393 -11.660722 -7.008606 7.805025 -3.285689 0.000000 0.000000 0.000000 
-2949.861572 786.595398 1096.626953 -7.267008 0.352000 0.467765 -0.623263 9.630663 6.421470 0.920192 -1.330545 -1.304283 1.380944 1.686577 0.925342 -0.256399 -1.833674 1.690008 0.000000 0.000000 0.000000 0.066116 5.279861 -5.007363 -3.593817 3.804067 -8.612938 4.222194 -49.591460 45.657921 0.000000 0.000000 0.000000 1.722055 11.507390 -1.179494 6.625724 12.034021 5.154239 -2.734768 -62.774271 -29.575487 0.000000 0.000000 0.000000 -1.493931 -11.626146 -4.843537 -4.905070 17.978977 -2.870970 -5.455266 -5.566537 -0.557558 0.000000 0.000000 0.000000 -0.764760 -3.545854 8.799206 0.021828 45.606004 -12.048050 -7.555686 7.954801 -3.502220 0.000000 0.000000 0.000000 
-2946.757080 783.127686 1098.401001 -8.076362 0.438220 0.441922 -0.525941 9.393106 6.397367 1.139810 -1.310311 -1.333066 1.625881 1.651716 0.917843 -0.331073 -1.700192 1.962201 0.000000 0.000000 0.000000 0.130118 4.436618 -4.320517 -3.329067 2.917618 -8.312549 4.547125 -47.250777 45.592343 0.000000 0.000000 0.000000 2.116562 11.523802 -0.844213 6.274023 11.819359 4.208098 -2.895085 -62.430252 -28.463209 0.000000 0.000000 0.000000 -1.149502 -11.584743 -4.173940 -4.684715 17.805664 -3.583933 -5.376783 -5.262459 -0.609341 0.000000 0.000000 0.000000 -0.285356 -4.561821 9.285430 0.311633 47.710292 -12.069827 -7.882577 7.697708 -3.603309 0.000000 0.000000 0.000000 
-2943.171387 780.219971 1100.062012 -8.339976 0.435730 0.428204 -0.627466 9.101102 6.511971 1.182482 -1.298339 -1.377389 1.708282 1.605421 0.929001 -0.371312 -1.580682 2.092973 0.000000 0.000000 0.000000 0.027234 3.722703 -3.787868 -2.934833 2.207078 -7.853293 4.898035 -44.895794 45.175142 0.000000 0.000000 0.000000 2.314892 11.537172 -0.670336 6.028986 11.681109 3.437284 -2.969636 -62.044217 -27.339361 0.000000 0.000000 0.000000 -1.086925 -10.963722 -3.845590 -4.565035 16.950927 -3.810346 -5.261676 -4.985120 -0.646222 0.000000 0.000000 0.000000 0.205163 -5.626170 9.520454 0.545503 50.027295 -11.577084 -7.854614 6.956630 -3.535003 0.000000 0.000000 0.000000 
-2939.468262 777.839233 1101.822021 -8.276473 0.413149 0.428835 -0.839328 8.745803 6.675238 1.102560 -1.284017 -1.418683 1.674699 1.539672 0.950643 -0.394026 -1.458620 2.147939 0.000000 0.000000 0.000000 -0.181306 3.078186 -3.342440 -2.457070 1.597321 -7.271892 5.260356 -42.495680 44.501860 0.000000 0.000000 0.000000 2.416358 11.537584 -0.572547 5.837143 11.567985 2.726086 -2.996090 -61.597477 -26.165974 0.000000 0.000000 0.000000 -1.196706 -10.067909 -3.665263 -4.503118 15.704634 -3.872679 -5.146372 -4.653022 -0.703566 0.000000 0.000000 0.000000 0.709318 -6.759305 9.535021 0.732871 52.415985 -10.725586 -7.545712 5.821469 -3.329287 0.000000 0.000000 0.000000 
-2936.039551 776.127991 1103.392944 -8.198188 0.375566 0.413770 -1.006965 8.423862 6.886055 1.019906 -1.254476 -1.452168 1.631852 1.463209 0.977786 -0.401478 -1.350164 2.141377 0.000000 0.000000 0.000000 -0.331554 2.580327 -3.017475 -2.057846 1.161175 -6.709583 5.529504 -40.605667 43.802300 0.000000 0.000000 0.000000 2.485219 11.462865 -0.534549 5.716622 11.437074 2.236853 -2.992253 -61.095309 -25.151446 0.000000 0.000000 0.000000 -1.332904 -9.223496 -3.540898 -4.441052 14.540955 -3.868780 -5.032532 -4.290147 -0.770749 0.000000 0.000000 0.000000 1.239924 -7.790928 9.374861 0.958912 54.587541 -9.743024 -6.955146 4.113807 -2.960032 0.000000 0.000000 0.000000 
-2933.038330 775.174316 1104.692017 -8.153453 0.316384 0.353439 -1.105495 8.153839 7.206492 0.970302 -1.194364 -1.493956 1.614279 1.368994 1.018074 -0.387513 -1.250888 2.045948 0.000000 0.000000 0.000000 -0.337038 2.276508 -2.897048 -1.790159 0.990453 -6.159017 5.666003 -39.528929 43.090460 0.000000 0.000000 0.000000 2.533698 11.260719 -0.574696 5.680335 11.258645 2.075705 -2.960347 -60.480020 -24.320132 0.000000 0.000000 0.000000 -1.461154 -8.489437 -3.444199 -4.376513 13.559018 -3.792709 -4.924955 -3.897668 -0.848754 0.000000 0.000000 0.000000 1.829962 -8.698679 9.048181 1.289942 56.693257 -8.635611 -5.976508 1.427945 -2.334373 0.000000 0.000000 0.000000 
-2930.311768 774.891174 1105.802002 -8.093226 0.243436 0.270621 -1.166747 7.916085 7.585734 0.921415 -1.120336 -1.537641 1.588092 1.265315 1.064586 -0.360063 -1.164127 1.897382 0.000000 0.000000 0.000000 -0.270784 2.100602 -2.932216 -1.591804 1.000792 -5.606913 5.731782 -38.971473 42.376757 0.000000 0.000000 0.000000 2.555969 10.986847 -0.671736 5.703206 11.061915 2.129264 -2.904455 -59.793272 -23.638905 0.000000 0.000000 0.000000 -1.607896 -7.807912 -3.397373 -4.321410 12.665762 -3.649000 -4.824350 -3.493175 -0.933452 0.000000 0.000000 0.000000 2.441653 -9.493387 8.559594 1.676518 58.562837 -7.434520 -4.731034 -1.834498 -1.516296 0.000000 0.000000 0.000000 
-2927.794189 775.155762 1106.688965 -8.190210 0.193072 0.206045 -1.126823 7.737251 7.878446 0.898389 -1.065003 -1.566608 1.564328 1.188540 1.098920 -0.342230 -1.111976 1.800963 0.000000 0.000000 0.000000 -0.201149 1.961413 -2.961925 -1.440647 1.006116 -5.190341 5.787767 -38.599605 41.884292 0.000000 0.000000 0.000000 2.583623 10.747491 -0.746647 5.750621 10.898742 2.226437 -2.845194 -59.213769 -23.229889 0.000000 0.000000 0.000000 -1.697305 -7.345773 -3.384652 -4.255084 12.068813 -3.545737 -4.725742 -3.170804 -0.993662 0.000000 0.000000 0.000000 3.007952 -10.105531 7.996360 2.062470 59.532962 -6.398992 -3.576945 -4.708770 -0.755924 0.000000 0.000000 0.000000 
